# xmcd
#
# Track frame offsets: 
#        150
#        11625
#        25115
#        42177
#        54657
#        69545
#        86909
#        102314
#        117952
#        131655
#        145509
#        162565
#
# Disc length: 2366 seconds
#
# Revision: 0
# Processed by: cddbd v1.5.2PL0 Copyright (c) Steve Scherf et al.
# Submitted via: ExactAudioCopy v0.99pb5
#
DISCID=a3093c0c
DTITLE=Rosi Golan - Lead Balloon
DYEAR=2012
DGENRE=Indie
TTITLE0=Paper Tiger
TTITLE1=You and I
TTITLE2=Flicker
TTITLE3=Everything Is Brilliant
TTITLE4=I Like You
TTITLE5=Lead Balloon
TTITLE6=Underneath A Beating Heart
TTITLE7=Say It Anyway
TTITLE8=Seeing Ghosts
TTITLE9=Fly Away
TTITLE10=Can't Go Back
TTITLE11=A Lot Of Things
EXTD=
EXTT0=
EXTT1=
EXTT2=
EXTT3=
EXTT4=
EXTT5=
EXTT6=
EXTT7=
EXTT8=
EXTT9=
EXTT10=
EXTT11=
PLAYORDER=
